<svg width="150" height="292" viewBox="0 0 150 292" fill="none" xmlns="http://www.w3.org/2000/svg">
<path fill-rule="evenodd" clip-rule="evenodd" d="M51.6769 115.942V183.938C51.6769 187.288 53.4956 190.291 55.7809 192.741C56.816 193.85 57.6397 195.07 57.6397 196.14V233.928C57.6397 234.852 56.8378 235.969 55.8222 237.014C53.4871 239.416 51.6769 242.42 51.6769 245.77V281.51C51.6769 287.033 56.1541 291.51 61.6769 291.51H80.4967C80.4967 291.51 86.7907 288.529 86.7907 281.573V247.453C86.7907 246.341 85.3457 245.306 83.8405 244.228C82.2042 243.056 80.4967 241.833 80.4967 240.406V189.302C80.4967 187.939 81.6671 186.306 82.9985 184.89C85.1822 182.568 86.7907 179.648 86.7907 176.46V126.602C86.7907 120.828 81.9144 116.291 76.1434 116.48C68.0867 116.744 61.3933 116.556 51.6769 115.942Z" fill="#493221"/>
<path d="M97.3911 10C97.3911 4.47715 92.9139 0 87.3911 0L61.6769 0C56.1541 0 51.6769 4.47715 51.6769 10L51.6769 115.942C61.3933 116.556 68.0867 116.744 76.1434 116.48C81.9144 116.291 86.7907 120.828 86.7907 126.602V176.46C86.7907 179.648 85.1822 182.568 82.9985 184.89C81.6671 186.306 80.4967 187.939 80.4967 189.302V240.406C80.4967 241.833 82.2042 243.056 83.8405 244.228C85.3457 245.306 86.7907 246.341 86.7907 247.453V281.573C86.7907 288.529 80.4967 291.51 80.4967 291.51H87.3911C92.9139 291.51 97.3911 287.033 97.3911 281.51V246.354C97.3911 242.688 95.0993 239.554 92.7228 236.763C91.9681 235.877 91.4284 234.903 91.4284 233.928V196.14C91.4284 195.07 92.252 193.85 93.2871 192.741C95.5724 190.291 97.3911 187.288 97.3911 183.938L97.3911 10Z" fill="#3B2617"/>
<path d="M9.2836 14.2727C4.05045 14.619 0 18.9698 0 24.2144L0 94.7539C0 100.116 4.24883 104.523 9.60659 104.733L9.60659 14.2513C9.49819 14.2585 9.39052 14.2656 9.2836 14.2727Z" fill="#373741"/>
<path fill-rule="evenodd" clip-rule="evenodd" d="M9.60659 14.2513C25.4922 13.2021 57.2276 11.2637 74.8652 11.2637C92.5028 11.2637 124.238 13.2021 140.124 14.2513V104.733C123.277 105.392 88.8684 106.667 74.8652 106.667C60.8619 106.667 26.4529 105.392 9.60659 104.733L9.60659 14.2513Z" fill="#4E4D5D"/>
<path d="M140.124 104.733C145.482 104.523 149.73 100.116 149.73 94.7539V24.2144C149.73 18.9698 145.68 14.619 140.447 14.2727C140.34 14.2656 140.232 14.2585 140.124 14.2513V104.733Z" fill="#373741"/>
</svg>
