<svg width="159" height="96" viewBox="0 0 159 96" fill="none" xmlns="http://www.w3.org/2000/svg">
<path d="M70.5 39V6V0H41C38.2386 0 36 2.23858 36 5V34C36 36.7614 38.2386 39 41 39H42.5H58.5H70.5Z" fill="#3A3A42"/>
<path d="M35 76C32.2386 76 30 78.2386 30 81V90.5C30 93.2614 32.2386 95.5 35 95.5H44V82V76H37H35Z" fill="#373741"/>
<path d="M58.5 39H42.5V71.5C42.5 73.5 37 76 37 76H44H53.5C53.5 76 58.5 73.5 58.5 71.5V39Z" fill="#373741"/>
<path d="M136.5 39H70.5H58.5V71.5C58.5 73.5 53.5 76 53.5 76H61.5H136.5C136.5 76 119.5 72 119.5 57.5C119.5 43 136.5 39 136.5 39Z" fill="#4E4D5D"/>
<path d="M53.5 76H44V82C44 77 46.0712 75.9759 53.5 76Z" fill="#373741"/>
<path fill-rule="evenodd" clip-rule="evenodd" d="M155.5 39C157.157 39 158.5 37.6569 158.5 36V6H70.5V39H136.5H155.5Z" fill="#4E4D5D"/>
<path d="M158.5 3C158.5 1.34315 157.157 0 155.5 0H70.5V6H158.5V3Z" fill="#7A7689"/>
<path fill-rule="evenodd" clip-rule="evenodd" d="M44 82V95.5H153.5C156.261 95.5 158.5 93.2614 158.5 90.5V82H66.5C63.7386 82 61.5 79.7614 61.5 77V76H53.5C46.0712 75.9759 44 77 44 82Z" fill="#4E4D5D"/>
<path d="M158.5 81C158.5 78.2386 156.261 76 153.5 76H136.5H61.5V77C61.5 79.7614 63.7386 82 66.5 82H158.5V81Z" fill="#7A7689"/>
<path d="M60 37V11H3.5C3.5 11 7 22.5 16 29.5C25 36.5 49.5 38.2631 49.5 38.2631C55.6548 37.7242 60 37 60 37Z" fill="#4E4D5D"/>
<path d="M0 11C0 11 2 29 16 35.5C24.6719 39.5262 39.4827 39.1401 49.5 38.2631C49.5 38.2631 25 36.5 16 29.5C7 22.5 3.5 11 3.5 11H0Z" fill="#373741"/>
<path d="M58 39H156H136.299C136.299 39 129.76 41.5 126.5 44C123.24 46.5 121.5 49.5 121.5 49.5H58V39Z" fill="url(#paint0_linear_2003_313)"/>
<defs>
<linearGradient id="paint0_linear_2003_313" x1="107" y1="39" x2="107" y2="51" gradientUnits="userSpaceOnUse">
<stop stop-color="#373741"/>
<stop offset="1" stop-color="#373741" stop-opacity="0.6"/>
</linearGradient>
</defs>
</svg>
