<svg width="296" height="275" viewBox="0 0 296 275" fill="none" xmlns="http://www.w3.org/2000/svg">
<path d="M157.37 117.63L141.871 127.131L228.902 163.356L243.208 153.855L157.37 117.63Z" fill="#421A01"/>
<path d="M243.208 153.855L228.902 163.356L246.785 187.11L260.212 179.907C261.298 179.325 261.604 177.908 260.856 176.93L243.208 153.855Z" fill="#512A0B"/>
<path d="M228.902 197.206C224.133 207.55 238.439 213.833 233.67 241.15C232.425 248.285 227.601 254.002 221.152 258.555C221.152 258.555 254.335 239.234 247.977 221.748C241.618 204.263 237.247 189.187 237.247 189.187C234.046 190.63 230.807 193.072 228.902 197.206Z" fill="#421A01"/>
<path fill-rule="evenodd" clip-rule="evenodd" d="M213.801 262.954C213.801 262.954 226.517 250.361 228.902 241.15C230.294 235.773 227.08 222.746 224.362 211.728C222.425 203.874 220.739 197.041 221.152 194.725C221.726 191.514 225.809 189.472 229.158 187.798C231.611 186.571 233.67 185.542 233.67 184.393C233.67 181.676 223.338 170.881 223.338 170.881L134.122 133.023L120.217 143.595C119.706 143.983 119.678 144.749 120.144 145.191C123.397 148.272 134.122 159.616 134.122 175.233C134.122 182.837 131.986 186.794 129.899 190.66C126.934 196.154 124.066 201.466 127.565 216.803C133.526 242.932 171.676 275 171.676 275C171.676 275 195.601 272.269 213.801 262.954Z" fill="#9D683E"/>
<path d="M228.902 163.356L141.871 127.131L134.122 133.023L223.338 170.881C223.338 170.881 233.67 181.676 233.67 184.393C233.67 185.542 231.611 186.571 229.158 187.798C225.809 189.472 221.726 191.514 221.152 194.725C220.739 197.041 222.425 203.874 224.362 211.728C227.08 222.746 230.294 235.773 228.902 241.15C226.517 250.361 213.801 262.954 213.801 262.954C216.396 261.625 218.876 260.163 221.152 258.555C227.601 254.002 232.425 248.285 233.67 241.15C238.439 213.833 224.133 207.55 228.902 197.206C230.807 193.072 234.046 190.63 237.247 189.187C242.057 187.02 246.785 187.11 246.785 187.11L228.902 163.356Z" fill="#90572C"/>
<path d="M167.089 92.0244V92.8813C167.089 93.5305 166.661 94.3486 166.115 94.6991C164.064 96.0105 161.895 94.5563 161.895 92.6087V92.0244C161.895 91.6349 161.584 91.3232 161.194 91.3232H158.701C158.312 91.3232 158 91.6349 158 92.0244V92.9073C158 95.3353 159.429 97.5297 161.649 98.4905C166.401 100.529 170.984 97.1012 170.984 92.6087V92.0244C170.984 91.6349 170.673 91.3232 170.283 91.3232H167.79C167.401 91.3232 167.089 91.6349 167.089 92.0244ZM161.895 126.952V126.095C161.895 125.446 162.324 124.628 162.869 124.277C164.921 122.966 167.089 124.42 167.089 126.367V126.939C167.089 127.328 167.401 127.64 167.79 127.64H170.283C170.673 127.64 170.984 127.328 170.984 126.939V126.056C170.984 123.628 169.556 121.434 167.336 120.473C162.584 118.447 158 121.875 158 126.367V126.939C158 127.328 158.312 127.64 158.701 127.64H161.194C161.584 127.653 161.895 127.341 161.895 126.952ZM158 106.891C158 103.308 160.909 100.399 164.492 100.399C168.076 100.399 170.984 103.295 170.984 106.891V112.085C170.984 115.669 168.076 118.577 164.492 118.577C160.909 118.577 158 115.669 158 112.085V106.891ZM167.089 106.891C167.089 106.203 166.816 105.542 166.329 105.055C165.842 104.568 165.181 104.294 164.492 104.294C163.804 104.294 163.143 104.568 162.656 105.055C162.169 105.542 161.895 106.203 161.895 106.891V112.085C161.895 113.513 163.064 114.682 164.492 114.682C165.921 114.682 167.089 113.513 167.089 112.085V106.891Z" fill="#4E4F51"/>
<path d="M164.493 106.891C163.415 106.891 162.545 106.021 162.545 104.944V95.8549C162.545 94.7772 163.415 93.9072 164.493 93.9072C165.57 93.9072 166.44 94.7772 166.44 95.8549V104.944C166.44 106.008 165.57 106.891 164.493 106.891ZM164.493 125.069C163.415 125.069 162.545 124.199 162.545 123.122V114.033C162.545 112.955 163.415 112.085 164.493 112.085C165.57 112.085 166.44 112.955 166.44 114.033V123.122C166.44 124.186 165.57 125.069 164.493 125.069Z" fill="#2D2E30"/>
<path d="M222.677 87.4277C219.094 87.4277 216.185 90.3362 216.185 93.9198V99.1135C216.185 102.697 219.094 105.606 222.677 105.606C219.094 105.606 216.185 108.514 216.185 112.098V117.291C216.185 120.875 219.094 123.783 222.677 123.783C226.261 123.783 229.169 120.875 229.169 117.291V112.098C229.169 108.514 226.261 105.606 222.677 105.606C226.261 105.606 229.169 102.697 229.169 99.1135V93.9198C229.169 90.3362 226.261 87.4277 222.677 87.4277ZM222.677 91.323C224.105 91.323 225.274 92.4916 225.274 93.9198V99.1135C225.274 100.542 224.105 101.71 222.677 101.71C221.249 101.71 220.08 100.542 220.08 99.1135V93.9198C220.08 92.4916 221.249 91.323 222.677 91.323ZM225.274 112.098V117.291C225.274 118.72 224.105 119.888 222.677 119.888C221.249 119.888 220.08 118.72 220.08 117.291V112.098C220.08 110.669 221.249 109.501 222.677 109.501C224.105 109.501 225.274 110.669 225.274 112.098Z" fill="#4E4F51"/>
<path d="M220.729 88.012V91.9592C220.729 93.0499 221.625 93.9718 222.716 93.9458C223.768 93.9198 224.625 93.0499 224.625 91.9852V88.012C224.625 87.6874 224.365 87.4277 224.04 87.4277H221.301C220.989 87.4277 220.729 87.6874 220.729 88.012ZM220.729 110.15C220.729 111.228 221.599 112.098 222.677 112.098C223.755 112.098 224.625 111.228 224.625 110.15V101.061C224.625 99.9834 223.755 99.1135 222.677 99.1135C221.599 99.1135 220.729 99.9834 220.729 101.061V110.15ZM224.625 119.278V123.225C224.625 123.55 224.365 123.796 224.053 123.809H221.314C220.989 123.809 220.729 123.55 220.729 123.225V119.239C220.729 118.174 221.573 117.317 222.638 117.291C223.729 117.265 224.625 118.187 224.625 119.278Z" fill="#4E4F51"/>
<path d="M225.274 115.396V116.253C225.274 116.902 224.845 117.72 224.3 118.071C222.249 119.382 220.08 117.928 220.08 115.98V115.396C220.08 115.006 219.769 114.695 219.379 114.695H216.886C216.497 114.695 216.185 115.006 216.185 115.396V116.279C216.185 118.707 217.613 120.901 219.834 121.862C224.586 123.901 229.169 120.473 229.169 115.98V115.396C229.169 115.006 228.858 114.695 228.468 114.695H225.975C225.586 114.695 225.274 115.006 225.274 115.396ZM220.08 150.323V149.466C220.08 148.817 220.509 147.999 221.054 147.649C223.106 146.337 225.274 147.791 225.274 149.739V150.31C225.274 150.7 225.586 151.012 225.975 151.012H228.468C228.858 151.012 229.169 150.7 229.169 150.31V149.427C229.169 146.999 227.741 144.805 225.521 143.844C220.768 141.819 216.185 145.247 216.185 149.739V150.31C216.185 150.7 216.497 151.012 216.886 151.012H219.379C219.769 151.025 220.08 150.713 220.08 150.323ZM216.185 130.263C216.185 126.679 219.094 123.771 222.677 123.771C226.261 123.771 229.169 126.666 229.169 130.263V135.456C229.169 139.04 226.261 141.949 222.677 141.949C219.094 141.949 216.185 139.04 216.185 135.456V130.263ZM225.274 130.263C225.274 129.574 225 128.914 224.513 128.427C224.026 127.94 223.366 127.666 222.677 127.666C221.988 127.666 221.328 127.94 220.841 128.427C220.354 128.914 220.08 129.574 220.08 130.263V135.456C220.08 136.885 221.249 138.053 222.677 138.053C224.105 138.053 225.274 136.885 225.274 135.456V130.263Z" fill="#4E4F51"/>
<path d="M222.677 130.263C221.599 130.263 220.729 129.393 220.729 128.315V119.226C220.729 118.149 221.599 117.279 222.677 117.279C223.755 117.279 224.625 118.149 224.625 119.226V128.315C224.625 129.38 223.755 130.263 222.677 130.263ZM222.677 148.441C221.599 148.441 220.729 147.571 220.729 146.493V137.404C220.729 136.327 221.599 135.457 222.677 135.457C223.755 135.457 224.625 136.327 224.625 137.404V146.493C224.625 147.558 223.755 148.441 222.677 148.441Z" fill="#2D2E30"/>
<path d="M12.7168 170.087V15.1012L0 11.1272V157.085C0 160.698 1.94862 164.03 5.09739 165.801L12.7168 170.087Z" fill="#9D683E"/>
<path d="M12.7168 15.1012L50.8671 3.97399L40.1952 0.835196C38.3418 0.290088 36.3702 0.29349 34.5187 0.844993L0 11.1272L12.7168 15.1012Z" fill="#653C1C"/>
<path d="M21.4595 34.1763V40.3707C21.4595 45.7756 25.7542 50.2024 31.1566 50.3661L37.385 50.5548C43.0239 50.7257 47.6879 46.201 47.6879 40.5594V34.9711L21.4595 34.1763Z" fill="#854B20"/>
<path fill-rule="evenodd" clip-rule="evenodd" d="M50.8671 3.97399L12.7168 15.1012V170.087L44.3783 158.214C48.2813 156.75 50.8671 153.019 50.8671 148.85V3.97399ZM21.4595 34.1763V40.3707C21.4595 45.7756 25.7542 50.2024 31.1566 50.3661L37.385 50.5548C43.0239 50.7257 47.6879 46.201 47.6879 40.5594V34.9711L21.4595 34.1763ZM39.7399 115.246C39.7399 110.417 35.8256 106.503 30.9971 106.503H30.2023C24.9349 106.503 20.6647 110.773 20.6647 116.04V123.988H30.9971C35.8256 123.988 39.7399 120.074 39.7399 115.246Z" fill="#90572C"/>
<path d="M20.6647 116.04C20.6647 110.773 24.9349 106.503 30.2023 106.503H30.9971C35.8256 106.503 39.7399 110.417 39.7399 115.246C39.7399 120.074 35.8256 123.988 30.9971 123.988H20.6647V116.04Z" fill="#854B20"/>
<path fill-rule="evenodd" clip-rule="evenodd" d="M20.6648 123.988V111.584C20.6648 107.545 23.0949 103.902 26.8244 102.351L89.8122 76.1527L112.861 85.4096L20.6648 123.988Z" fill="#A06336"/>
<path d="M132.731 77.0952L110.477 67.5576L89.8122 76.1527L112.861 85.4096L132.731 77.0952Z" fill="#92572C"/>
<path d="M20.6648 23.0493L277.384 118.425L295.665 110.477L43.0245 17.8946C40.898 17.1153 38.5699 17.0809 36.4213 17.7971L20.6648 23.0493Z" fill="#6D3912"/>
<path d="M277.384 118.425V121.604V140.679L289.652 135.346C293.303 133.758 295.665 130.156 295.665 126.175V110.477L277.384 118.425Z" fill="#431500"/>
<path fill-rule="evenodd" clip-rule="evenodd" d="M27.0808 44.5876C23.2158 43.1038 20.6648 39.3919 20.6648 35.2519V25.4337L277.384 121.604V140.679L27.0808 44.5876Z" fill="#A76230"/>
<path d="M277.384 118.425L20.6648 23.0493V25.4337L277.384 121.604V118.425Z" fill="#955526"/>
</svg>
