<svg width="534" height="534" viewBox="0 0 534 534" fill="none" xmlns="http://www.w3.org/2000/svg">
<path d="M458.431 160.267C459.149 160.682 475.421 168.162 494.548 177.001C513.716 185.77 530.06 193.29 530.892 193.675C531.723 194.059 532.521 194.999 532.734 195.792C532.966 196.884 527.456 205.099 485.609 264.643L482.519 265.349C480.82 265.804 430.027 275.65 369.577 287.294C309.085 299.009 239.801 312.353 171.525 325.608L176.38 332.625C179.12 336.505 181.315 340.167 181.354 340.764C181.392 341.361 179.979 344.471 178.155 347.632C176.33 350.792 173.215 355.027 171.271 357.066C169.256 359.063 165.962 361.949 163.908 363.35C161.742 364.78 157.535 366.757 154.352 367.792C151.24 368.869 145.896 369.998 142.53 370.353C139.165 370.708 135.863 370.622 135.145 370.207C134.426 369.792 134.195 368.701 134.612 367.314C134.988 365.999 136.253 361.653 137.351 357.594C138.521 353.577 139.858 346.782 140.37 342.577C140.955 338.413 141.007 331.356 139.972 318.883L107.259 327.77C76.4719 336.141 74.4629 336.8 74.1555 338.826C74.0059 340.08 73.1654 341.702 72.3693 342.583C71.5014 343.423 69.1607 344.657 67.0798 345.275C64.999 345.894 62.0695 347.65 60.5299 349.155C58.9904 350.661 55.812 352.848 53.4713 354.083C51.0172 355.347 46.9992 356.667 44.374 357.067C41.7489 357.466 37.4799 357.396 34.9103 356.87C31.7854 356.311 28.2628 354.948 24.7847 352.844C20.6187 350.439 18.743 348.877 16.4837 345.657C14.9095 343.407 12.8191 339.231 11.9469 336.429C10.9836 333.287 10.5097 328.8 10.7623 325.211C11.1149 319.955 11.5326 318.568 14.6843 313.109C17.7946 307.722 18.8284 306.595 23.1315 303.621C26.4232 301.403 30.082 299.876 33.9231 299.029C37.1976 298.334 41.8177 298.128 44.3569 298.54C46.8546 299.025 49.3827 299.622 49.8137 299.871C50.3165 300.162 52.5187 299.997 54.7129 299.348C56.8656 298.771 59.5514 298.598 60.6814 298.963C61.8114 299.328 63.3501 300.312 64.1069 301.324C65.3858 302.924 67.4555 302.491 97.4382 294.518C115.071 289.854 129.626 285.711 129.875 285.28C130.124 284.849 129.445 282.542 128.407 280.027C127.297 277.47 125.513 273.759 124.298 271.717C123.083 269.674 120.517 265.99 118.553 263.42C116.589 260.85 112.023 255.819 108.264 252.212C104.433 248.563 101.485 245.042 101.428 244.147C101.309 243.025 102.63 242.064 106.568 240.219C109.476 238.833 114.596 237.097 117.912 236.33C121.228 235.563 126.313 235.05 129.048 235.289C131.825 235.456 136.348 236.247 139.092 236.969C141.794 237.763 146.609 239.873 149.77 241.698C152.93 243.522 155.709 245.51 155.974 246.046C156.311 246.624 156.169 250.851 155.04 264.086L239.394 234.926C285.801 218.909 338.019 200.789 355.473 194.776C372.927 188.764 402.941 178.414 422.177 171.803C442.218 164.794 457.671 159.924 458.431 160.267Z" fill="#822A24"/>
<path d="M456.838 164.519L486.302 178.179C502.503 185.617 517.388 192.678 523.074 195.769L180.912 287.451L167.767 279.862C155.197 272.605 154.664 272.202 155.093 270.629C155.386 269.458 157.501 268.284 161.941 266.73C165.151 265.6 186.278 258.274 210.98 249.708L220.27 246.487C248.769 236.604 313.732 214.157 456.838 164.519Z" fill="url(#paint0_radial_2003_241)"/>
<path d="M129.654 240.044C133.172 240.255 138.198 241.338 140.775 242.347C143.353 243.356 146.812 245.162 148.525 246.342C150.196 247.594 151.58 248.681 151.538 248.753C151.569 248.866 151.299 253.978 150.932 260.087C150.638 266.237 150.403 272.615 150.53 274.22C150.786 276.762 150.131 278.395 146.647 284.429C144.366 288.379 141.508 292.667 138.354 296.305L135.953 288.023C134.667 283.449 132.696 277.906 131.605 275.648C130.514 273.39 128.023 269.079 126.082 266.138C124.11 263.084 120.417 258.367 117.837 255.536C115.299 252.634 112.012 249.204 110.536 247.778C109.092 246.465 108.1 245.03 108.349 244.599C108.556 244.24 112.019 242.888 115.954 241.712C121.136 240.202 125.068 239.695 129.654 240.044Z" fill="url(#paint1_radial_2003_241)"/>
<path d="M146.506 292.967C148.995 288.657 152.351 283.508 153.882 281.519L156.583 278.002L158.848 279.884C160.088 280.888 164.776 283.882 177.275 291.098L171.353 301.853C168.065 307.712 165.359 312.566 165.276 312.71C165.193 312.854 159.927 310.196 141.945 300.868L146.506 292.967Z" fill="url(#paint2_radial_2003_241)"/>
<path d="M124.277 292.487L127.687 291.391C129.655 290.803 131.426 290.389 131.641 290.514C131.857 290.638 133.458 296.16 138.376 314.514L130.94 316.446L124.277 292.487Z" fill="url(#paint3_radial_2003_241)"/>
<path d="M143.06 313.866C141.586 307.461 141.429 305.742 142.559 306.107C143.36 306.378 147.866 308.692 152.607 311.429C160.262 315.753 161.472 316.643 162.593 319.015C163.358 320.51 166.636 325.946 170.009 331.053C173.381 336.161 176.231 340.679 176.292 340.906C176.383 341.246 175.116 343.771 173.386 346.602C171.696 349.362 168.531 353.185 166.445 355.141C164.358 357.097 160.931 359.715 158.93 360.858C156.887 362.074 152.107 363.719 148.409 364.649C144.64 365.537 141.305 366.006 140.874 365.757C140.515 365.55 140.656 363.812 141.179 361.911C141.702 360.01 142.875 355.324 143.622 351.542C144.441 347.801 145.292 341.683 145.525 337.796C145.717 333.98 145.688 328.887 145.421 326.53C145.154 324.173 144.119 318.5 143.06 313.866Z" fill="url(#paint4_radial_2003_241)"/>
<path d="M112.947 295.523L115.863 294.62C117.418 294.082 119.035 293.77 119.322 293.936C119.681 294.144 121.103 298.316 122.552 303.271C123.929 308.184 125.284 313.468 125.83 317.997L119.682 319.523L112.947 295.523Z" fill="url(#paint5_radial_2003_241)"/>
<path d="M101.402 298.434L104.461 297.615C106.089 297.118 107.807 296.961 108.166 297.168C108.597 297.417 110.141 302.043 111.67 307.523C113.127 312.961 114.368 318.275 114.271 319.273C114.183 320.754 113.552 321.347 108.144 322.918L106.693 316.142C105.876 312.415 104.389 306.863 101.402 298.434Z" fill="url(#paint6_radial_2003_241)"/>
<path d="M90.854 301.443L93.471 300.559C94.872 300.123 96.4471 299.883 96.8781 300.132C97.309 300.381 98.9321 305.532 100.571 311.65C102.252 317.697 103.381 323.041 103.173 323.4C102.925 323.831 101.512 324.452 97.2292 325.236L90.854 301.443Z" fill="url(#paint7_radial_2003_241)"/>
<path d="M79.6597 304.078L82.7187 303.258L85.7059 302.397L88.0828 309.228C89.3416 313.02 90.7381 318.232 91.2512 320.826C91.7228 323.493 91.979 326.035 91.7716 326.394C91.5946 326.867 90.2543 327.529 86.1756 328.622L79.6597 304.078Z" fill="url(#paint8_radial_2003_241)"/>
<path d="M66.7325 307.724L70.6261 306.62L74.4479 305.475L76.2176 310.04C77.1425 312.585 78.6715 318.065 81.2319 329.886L73.301 332.011L66.7325 307.724Z" fill="url(#paint9_radial_2003_241)"/>
<path d="M48.251 304.237C49.8119 304.85 52.5281 304.791 54.9074 304.153C57.0601 303.576 59.4778 303.536 60.2679 303.992C61.2017 304.531 63.2831 310.713 65.9628 321.166C68.2893 330.076 69.8175 338.045 69.4443 338.691C69.0296 339.41 66.9983 340.44 64.8042 341.088C62.3834 341.798 59.722 343.422 57.5523 345.521C55.7335 347.344 52.4004 349.634 50.2256 350.581C48.0092 351.599 44.1682 352.447 41.5956 352.589C39.0231 352.732 35.4753 352.408 33.6463 351.926C31.8172 351.445 28.4605 349.794 26.2146 348.21C23.7532 346.502 21.0185 343.774 19.5576 341.494C18.0855 339.399 16.4787 335.215 15.9049 332.394C15.3421 329.387 15.2578 325.22 15.7725 322.836C16.3924 319.938 17.6395 317.114 19.7515 314.119C21.7087 311.227 24.1991 308.738 26.6754 307.103C28.8422 305.673 32.3159 304.135 34.499 303.671C36.682 303.208 40.0061 302.924 41.9292 303.077C43.8938 303.157 46.6485 303.694 48.251 304.237Z" fill="url(#paint10_radial_2003_241)"/>
<path d="M151.318 291.435C154.721 284.876 155.57 283.738 156.877 283.631C157.731 283.645 161.273 285.307 164.709 287.482C168.074 289.617 171.254 291.74 171.632 292.246C172.154 292.834 171.054 295.072 163.053 308.266L147.251 299.143L151.318 291.435Z" fill="#822A24"/>
<path d="M33.8222 312.475C35.1211 311.884 38.4149 311.487 41.0785 311.684C43.7835 311.809 46.7537 312.47 47.7593 313.051C48.7649 313.632 50.6406 315.193 51.972 316.537C53.3338 317.993 54.905 320.912 55.5922 323.703C56.4118 326.762 56.5325 329.704 55.9045 332.119C55.2987 334.164 54.0213 336.874 52.946 338.073C51.8708 339.272 49.4855 341.247 47.4847 342.39C44.7929 343.901 42.8364 344.303 38.8051 343.987C34.8153 343.599 32.884 342.963 30.895 341.431C29.4392 340.304 27.2681 338.092 26.2159 336.431C25.0504 334.801 23.9434 331.576 23.7783 329.373C23.5414 327.13 24.0398 323.778 24.8611 321.858C25.652 319.825 27.3604 317.363 28.817 316.001C30.2322 314.712 32.4819 313.137 33.8222 312.475Z" fill="#822A24"/>
<defs>
<radialGradient id="paint0_radial_2003_241" cx="0" cy="0" r="1" gradientUnits="userSpaceOnUse" gradientTransform="translate(299.5 241) rotate(160.205) scale(259.854 259.781)">
<stop stop-color="#FFFDFA"/>
<stop offset="0.4" stop-color="#B46963"/>
<stop offset="0.725" stop-color="#71281A"/>
</radialGradient>
<radialGradient id="paint1_radial_2003_241" cx="0" cy="0" r="1" gradientUnits="userSpaceOnUse" gradientTransform="translate(299.5 241) rotate(160.205) scale(259.854 259.781)">
<stop stop-color="#FFFDFA"/>
<stop offset="0.4" stop-color="#B46963"/>
<stop offset="0.725" stop-color="#71281A"/>
</radialGradient>
<radialGradient id="paint2_radial_2003_241" cx="0" cy="0" r="1" gradientUnits="userSpaceOnUse" gradientTransform="translate(299.5 241) rotate(160.205) scale(259.854 259.781)">
<stop stop-color="#FFFDFA"/>
<stop offset="0.4" stop-color="#B46963"/>
<stop offset="0.725" stop-color="#71281A"/>
</radialGradient>
<radialGradient id="paint3_radial_2003_241" cx="0" cy="0" r="1" gradientUnits="userSpaceOnUse" gradientTransform="translate(299.5 241) rotate(160.205) scale(259.854 259.781)">
<stop stop-color="#FFFDFA"/>
<stop offset="0.4" stop-color="#B46963"/>
<stop offset="0.725" stop-color="#71281A"/>
</radialGradient>
<radialGradient id="paint4_radial_2003_241" cx="0" cy="0" r="1" gradientUnits="userSpaceOnUse" gradientTransform="translate(299.5 241) rotate(160.205) scale(259.854 259.781)">
<stop stop-color="#FFFDFA"/>
<stop offset="0.4" stop-color="#B46963"/>
<stop offset="0.725" stop-color="#71281A"/>
</radialGradient>
<radialGradient id="paint5_radial_2003_241" cx="0" cy="0" r="1" gradientUnits="userSpaceOnUse" gradientTransform="translate(299.5 241) rotate(160.205) scale(259.854 259.781)">
<stop stop-color="#FFFDFA"/>
<stop offset="0.4" stop-color="#B46963"/>
<stop offset="0.725" stop-color="#71281A"/>
</radialGradient>
<radialGradient id="paint6_radial_2003_241" cx="0" cy="0" r="1" gradientUnits="userSpaceOnUse" gradientTransform="translate(299.5 241) rotate(160.205) scale(259.854 259.781)">
<stop stop-color="#FFFDFA"/>
<stop offset="0.4" stop-color="#B46963"/>
<stop offset="0.725" stop-color="#71281A"/>
</radialGradient>
<radialGradient id="paint7_radial_2003_241" cx="0" cy="0" r="1" gradientUnits="userSpaceOnUse" gradientTransform="translate(299.5 241) rotate(160.205) scale(259.854 259.781)">
<stop stop-color="#FFFDFA"/>
<stop offset="0.4" stop-color="#B46963"/>
<stop offset="0.725" stop-color="#71281A"/>
</radialGradient>
<radialGradient id="paint8_radial_2003_241" cx="0" cy="0" r="1" gradientUnits="userSpaceOnUse" gradientTransform="translate(299.5 241) rotate(160.205) scale(259.854 259.781)">
<stop stop-color="#FFFDFA"/>
<stop offset="0.4" stop-color="#B46963"/>
<stop offset="0.725" stop-color="#71281A"/>
</radialGradient>
<radialGradient id="paint9_radial_2003_241" cx="0" cy="0" r="1" gradientUnits="userSpaceOnUse" gradientTransform="translate(299.5 241) rotate(160.205) scale(259.854 259.781)">
<stop stop-color="#FFFDFA"/>
<stop offset="0.4" stop-color="#B46963"/>
<stop offset="0.725" stop-color="#71281A"/>
</radialGradient>
<radialGradient id="paint10_radial_2003_241" cx="0" cy="0" r="1" gradientUnits="userSpaceOnUse" gradientTransform="translate(299.5 241) rotate(160.205) scale(259.854 259.781)">
<stop stop-color="#FFFDFA"/>
<stop offset="0.4" stop-color="#B46963"/>
<stop offset="0.725" stop-color="#71281A"/>
</radialGradient>
</defs>
</svg>
