<svg width="255" height="264" viewBox="0 0 255 264" fill="none" xmlns="http://www.w3.org/2000/svg">
<g filter="url(#filter0_i_2003_643)">
<path d="M29.0003 110.412C29.0005 59.4093 41.8574 0 126.072 0C210.286 0 227 59.4137 227 110.412C227 161.41 227 190.002 227 241H29.0003C29.0003 241 29 161.414 29.0003 110.412Z" fill="#E99453"/>
</g>
<path fill-rule="evenodd" clip-rule="evenodd" d="M255 244C255 242.343 253.657 241 252 241H26.3274C26.3274 241 25.1991 242.917 25.1991 252.5C25.1991 262.083 26.3274 264 26.3274 264H252C253.657 264 255 262.657 255 261V244Z" fill="#E99453"/>
<path d="M3 241C1.34315 241 0 242.343 0 244V261C0 262.657 1.34314 264 3 264H26.3274C26.3274 264 25.1991 262.083 25.1991 252.5C25.1991 242.917 26.3274 241 26.3274 241H3Z" fill="#B26747"/>
<g filter="url(#filter1_i_2003_643)">
<path d="M51.0002 126.5C51.0004 81 61.0002 28 126.5 28C192 28 205 81.0039 205 126.5C205 171.996 205 197.504 205 243H51.0002C51.0002 243 51 172 51.0002 126.5Z" fill="url(#paint0_linear_2003_643)"/>
</g>
<line x1="114.5" y1="28" x2="114.5" y2="243" stroke="#3D191B" stroke-opacity="0.3" stroke-width="7"/>
<line x1="147.5" y1="28" x2="147.5" y2="243" stroke="#3D191B" stroke-opacity="0.3" stroke-width="7"/>
<line x1="205" y1="127.5" x2="51" y2="127.5" stroke="#3D191B" stroke-opacity="0.3" stroke-width="7"/>
<line x1="205" y1="160.5" x2="51" y2="160.5" stroke="#3D191B" stroke-opacity="0.3" stroke-width="7"/>
<line x1="113" y1="28" x2="113" y2="243" stroke="#3D191B" stroke-width="4"/>
<line x1="146" y1="28" x2="146" y2="243" stroke="#3D191B" stroke-width="4"/>
<line x1="205" y1="126" x2="51" y2="126" stroke="#3D191B" stroke-width="4"/>
<line x1="205" y1="159" x2="51" y2="159" stroke="#3D191B" stroke-width="4"/>
<defs>
<filter id="filter0_i_2003_643" x="29.0001" y="0" width="202" height="245" filterUnits="userSpaceOnUse" color-interpolation-filters="sRGB">
<feFlood flood-opacity="0" result="BackgroundImageFix"/>
<feBlend mode="normal" in="SourceGraphic" in2="BackgroundImageFix" result="shape"/>
<feColorMatrix in="SourceAlpha" type="matrix" values="0 0 0 0 0 0 0 0 0 0 0 0 0 0 0 0 0 0 127 0" result="hardAlpha"/>
<feOffset dx="9" dy="10"/>
<feGaussianBlur stdDeviation="2"/>
<feComposite in2="hardAlpha" operator="arithmetic" k2="-1" k3="1"/>
<feColorMatrix type="matrix" values="0 0 0 0 0.709804 0 0 0 0 0.427451 0 0 0 0 0.305882 0 0 0 1 0"/>
<feBlend mode="normal" in2="shape" result="effect1_innerShadow_2003_643"/>
</filter>
<filter id="filter1_i_2003_643" x="51.0001" y="28" width="158" height="219" filterUnits="userSpaceOnUse" color-interpolation-filters="sRGB">
<feFlood flood-opacity="0" result="BackgroundImageFix"/>
<feBlend mode="normal" in="SourceGraphic" in2="BackgroundImageFix" result="shape"/>
<feColorMatrix in="SourceAlpha" type="matrix" values="0 0 0 0 0 0 0 0 0 0 0 0 0 0 0 0 0 0 127 0" result="hardAlpha"/>
<feOffset dx="19" dy="31"/>
<feGaussianBlur stdDeviation="2"/>
<feComposite in2="hardAlpha" operator="arithmetic" k2="-1" k3="1"/>
<feColorMatrix type="matrix" values="0 0 0 0 0 0 0 0 0 0 0 0 0 0 0 0 0 0 0.25 0"/>
<feBlend mode="normal" in2="shape" result="effect1_innerShadow_2003_643"/>
</filter>
<linearGradient id="paint0_linear_2003_643" x1="186.5" y1="76.5" x2="14.5" y2="268.5" gradientUnits="userSpaceOnUse">
<stop stop-color="#FFE3BB"/>
<stop offset="1" stop-color="#EBB888"/>
</linearGradient>
</defs>
</svg>
